<mxfile host="app.diagrams.net" modified="2020-06-23T08:20:06.382Z" agent="5.0 (Windows NT 10.0; Win64; x64) AppleWebKit/537.36 (KHTML, like Gecko) Chrome/83.0.4103.97 Safari/537.36" etag="WbS6nvpe9EZaVLIyrbBS" version="13.3.0" type="github">
  <diagram name="Page-1" id="74e2e168-ea6b-b213-b513-2b3c1d86103e">
    <mxGraphModel dx="1843" dy="829" grid="0" gridSize="10" guides="1" tooltips="1" connect="1" arrows="1" fold="1" page="1" pageScale="1" pageWidth="1100" pageHeight="850" background="#ffffff" math="0" shadow="0">
      <root>
        <mxCell id="0" />
        <mxCell id="1" parent="0" />
        <mxCell id="7X4GDqBXamvWMYffcVno-16" value="乘客id，手机号&lt;br&gt;司机信息，&lt;br&gt;设备号：黑名单&lt;br&gt;&lt;br&gt;起点经纬度===&amp;gt;地图sdk，gps信息速度，终点经纬度&lt;br&gt;&lt;br&gt;下单时间&lt;br&gt;&lt;br&gt;订单开始时间&lt;br&gt;司机触发去接乘客的时间，经纬度&lt;br&gt;司机到大乘客上车点的时间，经纬度" style="shape=note;whiteSpace=wrap;html=1;backgroundOutline=1;darkOpacity=0.05;fillColor=#fff2cc;strokeColor=#d6b656;align=left;" vertex="1" parent="1">
          <mxGeometry x="-1076" width="289" height="227" as="geometry" />
        </mxCell>
        <mxCell id="7X4GDqBXamvWMYffcVno-19" value="" style="edgeStyle=orthogonalEdgeStyle;rounded=1;comic=0;orthogonalLoop=1;jettySize=auto;html=1;" edge="1" parent="1" source="7X4GDqBXamvWMYffcVno-17" target="7X4GDqBXamvWMYffcVno-18">
          <mxGeometry relative="1" as="geometry" />
        </mxCell>
        <mxCell id="7X4GDqBXamvWMYffcVno-17" value="订单预估" style="rounded=1;whiteSpace=wrap;html=1;" vertex="1" parent="1">
          <mxGeometry x="-1059" y="280" width="120" height="60" as="geometry" />
        </mxCell>
        <mxCell id="7X4GDqBXamvWMYffcVno-21" value="" style="edgeStyle=orthogonalEdgeStyle;rounded=1;comic=0;orthogonalLoop=1;jettySize=auto;html=1;" edge="1" parent="1" source="7X4GDqBXamvWMYffcVno-18" target="7X4GDqBXamvWMYffcVno-20">
          <mxGeometry relative="1" as="geometry" />
        </mxCell>
        <mxCell id="7X4GDqBXamvWMYffcVno-18" value="订单开始" style="rounded=1;whiteSpace=wrap;html=1;" vertex="1" parent="1">
          <mxGeometry x="-859" y="280" width="120" height="60" as="geometry" />
        </mxCell>
        <mxCell id="7X4GDqBXamvWMYffcVno-23" value="" style="edgeStyle=orthogonalEdgeStyle;rounded=1;comic=0;orthogonalLoop=1;jettySize=auto;html=1;" edge="1" parent="1" source="7X4GDqBXamvWMYffcVno-20" target="7X4GDqBXamvWMYffcVno-22">
          <mxGeometry relative="1" as="geometry" />
        </mxCell>
        <mxCell id="7X4GDqBXamvWMYffcVno-20" value="司机接单" style="rounded=1;whiteSpace=wrap;html=1;" vertex="1" parent="1">
          <mxGeometry x="-659" y="280" width="120" height="60" as="geometry" />
        </mxCell>
        <mxCell id="7X4GDqBXamvWMYffcVno-25" value="" style="edgeStyle=orthogonalEdgeStyle;rounded=1;comic=0;orthogonalLoop=1;jettySize=auto;html=1;" edge="1" parent="1" source="7X4GDqBXamvWMYffcVno-22" target="7X4GDqBXamvWMYffcVno-24">
          <mxGeometry relative="1" as="geometry" />
        </mxCell>
        <mxCell id="7X4GDqBXamvWMYffcVno-22" value="前往接送乘客" style="rounded=1;whiteSpace=wrap;html=1;" vertex="1" parent="1">
          <mxGeometry x="-459" y="280" width="120" height="60" as="geometry" />
        </mxCell>
        <mxCell id="7X4GDqBXamvWMYffcVno-27" value="" style="edgeStyle=orthogonalEdgeStyle;rounded=1;comic=0;orthogonalLoop=1;jettySize=auto;html=1;" edge="1" parent="1" source="7X4GDqBXamvWMYffcVno-24" target="7X4GDqBXamvWMYffcVno-26">
          <mxGeometry relative="1" as="geometry" />
        </mxCell>
        <mxCell id="7X4GDqBXamvWMYffcVno-24" value="到达乘客上车点" style="rounded=1;whiteSpace=wrap;html=1;" vertex="1" parent="1">
          <mxGeometry x="-459" y="420" width="120" height="60" as="geometry" />
        </mxCell>
        <mxCell id="7X4GDqBXamvWMYffcVno-29" value="" style="edgeStyle=orthogonalEdgeStyle;rounded=1;comic=0;orthogonalLoop=1;jettySize=auto;html=1;" edge="1" parent="1" source="7X4GDqBXamvWMYffcVno-26" target="7X4GDqBXamvWMYffcVno-28">
          <mxGeometry relative="1" as="geometry" />
        </mxCell>
        <mxCell id="7X4GDqBXamvWMYffcVno-26" value="接到乘客" style="rounded=1;whiteSpace=wrap;html=1;" vertex="1" parent="1">
          <mxGeometry x="-659" y="420" width="120" height="60" as="geometry" />
        </mxCell>
        <mxCell id="7X4GDqBXamvWMYffcVno-31" value="" style="edgeStyle=orthogonalEdgeStyle;rounded=1;comic=0;orthogonalLoop=1;jettySize=auto;html=1;" edge="1" parent="1" source="7X4GDqBXamvWMYffcVno-28" target="7X4GDqBXamvWMYffcVno-30">
          <mxGeometry relative="1" as="geometry" />
        </mxCell>
        <mxCell id="7X4GDqBXamvWMYffcVno-28" value="开始行程" style="rounded=1;whiteSpace=wrap;html=1;" vertex="1" parent="1">
          <mxGeometry x="-859" y="420" width="120" height="60" as="geometry" />
        </mxCell>
        <mxCell id="7X4GDqBXamvWMYffcVno-33" value="" style="edgeStyle=orthogonalEdgeStyle;rounded=1;comic=0;orthogonalLoop=1;jettySize=auto;html=1;" edge="1" parent="1" source="7X4GDqBXamvWMYffcVno-30" target="7X4GDqBXamvWMYffcVno-32">
          <mxGeometry relative="1" as="geometry" />
        </mxCell>
        <mxCell id="7X4GDqBXamvWMYffcVno-30" value="行程结束" style="rounded=1;whiteSpace=wrap;html=1;" vertex="1" parent="1">
          <mxGeometry x="-1059" y="420" width="120" height="60" as="geometry" />
        </mxCell>
        <mxCell id="7X4GDqBXamvWMYffcVno-35" value="" style="edgeStyle=orthogonalEdgeStyle;rounded=1;comic=0;orthogonalLoop=1;jettySize=auto;html=1;" edge="1" parent="1" source="7X4GDqBXamvWMYffcVno-32" target="7X4GDqBXamvWMYffcVno-34">
          <mxGeometry relative="1" as="geometry" />
        </mxCell>
        <mxCell id="7X4GDqBXamvWMYffcVno-32" value="乘客支付" style="rounded=1;whiteSpace=wrap;html=1;" vertex="1" parent="1">
          <mxGeometry x="-1059" y="560" width="120" height="60" as="geometry" />
        </mxCell>
        <mxCell id="7X4GDqBXamvWMYffcVno-34" value="订单关闭" style="rounded=1;whiteSpace=wrap;html=1;" vertex="1" parent="1">
          <mxGeometry x="-859" y="560" width="120" height="60" as="geometry" />
        </mxCell>
      </root>
    </mxGraphModel>
  </diagram>
</mxfile>
